HIERARCHY
ROOT Hips
{
	OFFSET 0.00000 0.00000 0.00000
	CHANNELS 6 Xposition Yposition Zposition Zrotation Yrotation Xrotation 
	JOINT LHipJoint
	{
		OFFSET 0 0 0
		CHANNELS 3 Zrotation Yrotation Xrotation
		JOINT LeftHip
		{
			OFFSET 1.53139 -1.83434 0.76626
			CHANNELS 3 Zrotation Yrotation Xrotation
			JOINT LeftKnee
			{
				OFFSET 2.56112 -7.03663 0.00000
				CHANNELS 3 Zrotation Yrotation Xrotation
				JOINT LeftAnkle
				{
					OFFSET 2.59983 -7.14299 0.00000
					CHANNELS 3 Zrotation Yrotation Xrotation
					JOINT LeftToe
					{
						OFFSET 0.13742 -0.37757 2.00054
						CHANNELS 3 Zrotation Yrotation Xrotation
						End Site
						{
							OFFSET 0.00000 -0.00000 1.02897
						}
					}
				}
			}
		}
	}
	JOINT RHipJoint
	{
		OFFSET 0 0 0
		CHANNELS 3 Zrotation Yrotation Xrotation
		JOINT RightHip
		{
			OFFSET -1.40122 -1.83435 0.76627
			CHANNELS 3 Zrotation Yrotation Xrotation
			JOINT RightKnee
			{
				OFFSET -2.54052 -6.98003 0.00000
				CHANNELS 3 Zrotation Yrotation Xrotation
				JOINT RightAnkle
				{
					OFFSET -2.63179 -7.23079 0.00000
					CHANNELS 3 Zrotation Yrotation Xrotation
					JOINT RightToe
					{
						OFFSET -0.24131 -0.66299 2.03908
						CHANNELS 3 Zrotation Yrotation Xrotation
						End Site
						{
							OFFSET -0.00000 -0.00000 1.07391
						}
					}
				}
			}
		}
	}
	JOINT lowerback
	{
		OFFSET 0 0 0
		CHANNELS 3 Zrotation Yrotation Xrotation
		JOINT Chest
		{
			OFFSET 0.01174 2.10302 -0.29778
			CHANNELS 3 Zrotation Yrotation Xrotation
			JOINT Chest2
			{
				OFFSET 0.00772 2.13227 -0.01247
				CHANNELS 3 Zrotation Yrotation Xrotation
				JOINT lowerneck
				{
					OFFSET 0 0 0
					CHANNELS 3 Zrotation Yrotation Xrotation
					JOINT Neck
					{
						OFFSET -0.09219 1.60848 0.31481
						CHANNELS 3 Zrotation Yrotation Xrotation
						JOINT Head
						{
							OFFSET 0.13974 1.65456 -0.31134
							CHANNELS 3 Zrotation Yrotation Xrotation
							End Site
							{
								OFFSET 0.04742 1.69515 -0.14578
							}
						}
					}
				}
				JOINT LeftCollar
				{
					OFFSET 0 0 0
					CHANNELS 3 Zrotation Yrotation Xrotation
					JOINT LeftShoulder
					{
						OFFSET 3.24909 1.02882 -0.23993
CHANNELS 3 Zrotation Xrotation Yrotation
						JOINT LeftElbow
						{
OFFSET 0 -5.329550 -0.000000
CHANNELS 3 Zrotation Xrotation Yrotation
							JOINT LeftWrist
							{
OFFSET 0 -3.692320 -0.000000
CHANNELS 3 Zrotation Xrotation Yrotation
								JOINT lhand
								{
									OFFSET 0 0 0
CHANNELS 3 Zrotation Xrotation Yrotation
									JOINT LFingers
									{
OFFSET 0 -0.536600 -0.000000
CHANNELS 3 Zrotation Xrotation Yrotation
										End Site
										{
OFFSET 0 -0.432620 -0.000000
										}
									}
								}
								JOINT LThumb
								{
OFFSET 0 0.000000 0.000000
CHANNELS 3 Zrotation Xrotation Yrotation
									End Site
									{
OFFSET 0 -0.439220 0.439220
									}
								}
							}
						}
					}
				}
				JOINT RightCollar
				{
					OFFSET 0 0 0
					CHANNELS 3 Zrotation Yrotation Xrotation
					JOINT RightShoulder
					{
						OFFSET -3.21387 0.93002 -0.34594
CHANNELS 3 Zrotation Xrotation Yrotation
						JOINT RightElbow
						{
OFFSET 0 -5.234310 0.000000
CHANNELS 3 Zrotation Xrotation Yrotation
							JOINT RightWrist
							{
OFFSET 0 -3.553010 -0.000000
CHANNELS 3 Zrotation Xrotation Yrotation
								JOINT rhand
								{
									OFFSET 0 0 0
CHANNELS 3 Zrotation Xrotation Yrotation
									JOINT RFingers
									{
OFFSET 0 -0.772520 -0.000000
CHANNELS 3 Zrotation Xrotation Yrotation
										End Site
										{
OFFSET 0 -0.622830 -0.000000
										}
									}
								}
								JOINT RThumb
								{
OFFSET 0 0.000000 0.000000
CHANNELS 3 Zrotation Xrotation Yrotation
									End Site
									{
OFFSET 0 -0.632340 0.632340
									}
								}
							}
						}
					}
				}
			}
		}
	}
}
MOTION
Frames: 11
Frame Time: 0.008333333333333333
-14.152800 17.784300 14.485900 19.487000 -87.741700 -16.772300 0.000000 0.000000 0.000000 -24.060500 -4.798300 -4.795600 1.401900 7.489800 21.174800 0.397600 -9.032900 -12.042000 0.101000 2.049300 5.641800 0.000000 0.000000 0.000000 23.052000 6.369700 -8.352000 -2.868600 -10.479200 30.543000 -1.053600 6.172800 -18.324000 -0.472800 -4.410000 12.233200 -1.212200 1.262900 3.823400 0.768300 1.646500 -0.809300 1.364000 0.848500 -3.032700 -6.866600 2.735400 -21.557600 5.280100 4.426000 29.721000 3.990200 1.745600 13.295800 0.000000 -0.000000 0.000000 1.640500 5.808200 -21.334800 17.125700 -27.023100 4.144300 17.080700 12.499800 -25.005000 0.000000 0.000000 0.000000 -7.125000 0.000000 0.000000 -13.449600 55.481100 3.506100 0.000000 -0.000000 0.000000 1.043300 4.027800 14.999100 -14.296200 -23.156600 -2.943600 -14.311200 8.507900 -7.800200 0.000000 0.000000 0.000000 7.125000 0.000000 -0.000000 9.090700 21.967800 5.092800
-14.240115 17.771835 14.500834 15.991640 -87.317242 -13.254406 0.000000 0.000000 0.000000 -24.051884 -4.497385 -4.697735 1.419978 7.535971 21.313297 0.356232 -9.939165 -11.862046 0.148756 2.485172 6.848545 0.000000 0.000000 0.000000 23.156176 6.531049 -7.794039 -2.837729 -10.427689 30.373106 -1.104072 5.346558 -18.801214 -0.438023 -4.246880 11.772199 -0.959740 1.295953 3.522443 0.695876 1.703250 -1.071583 1.147874 0.873435 -3.125763 -6.838759 2.696152 -23.626047 4.525144 4.889703 27.819628 3.755649 1.954237 12.934540 0.000000 0.000000 0.000000 1.845262 5.789281 -22.272701 17.239758 -27.172682 4.196246 17.318890 12.355033 -24.535390 0.000000 0.000000 0.000000 -7.125000 0.000000 0.000000 -12.975488 55.062778 3.246583 0.000000 0.000000 0.000000 0.986706 4.013371 15.860459 -14.590839 -23.573091 -3.060430 -14.291176 7.715049 -7.928345 0.000000 0.000000 0.000000 7.125000 0.000000 0.000000 9.100058 21.838215 5.125396
-14.313795 17.759824 14.508017 12.440169 -86.989851 -9.785701 0.000000 0.000000 0.000000 -23.994520 -4.843227 -4.323867 1.457288 7.630021 21.595870 0.382132 -10.066062 -12.206015 0.192439 2.822558 7.785384 0.000000 0.000000 0.000000 23.255843 5.864774 -7.523161 -2.809119 -10.379475 30.214485 -1.126938 5.755895 -18.978425 -0.508481 -4.570928 12.688648 -0.669892 1.382655 3.403994 0.542508 1.828551 -1.386060 0.818331 0.930362 -3.372636 -6.802495 2.490167 -25.103940 4.102848 4.881694 26.822704 3.592991 1.947349 12.846242 0.000000 0.000000 0.000000 1.997252 5.810517 -22.396509 17.287872 -27.235706 4.218248 19.598641 13.380696 -25.210022 0.000000 0.000000 0.000000 -7.125000 0.000000 0.000000 -10.945565 56.196756 3.030588 0.000000 0.000000 0.000000 1.009899 3.889764 16.280501 -14.879958 -23.978632 -3.177012 -14.218159 7.452615 -8.073132 0.000000 0.000000 0.000000 7.125000 0.000000 0.000000 9.147005 21.693943 5.182992
-14.380807 17.749159 14.518567 8.048328 -86.654734 -5.558983 0.000000 0.000000 0.000000 -23.909177 -5.212113 -3.963797 1.503933 7.745775 21.944539 0.447363 -9.654743 -12.799384 0.127566 2.298492 6.331520 0.000000 0.000000 0.000000 23.516059 5.592939 -6.968764 -2.762113 -10.299561 29.952498 -1.154874 5.313109 -19.244383 -0.363159 -3.871188 10.714605 -0.465565 1.366044 3.159266 0.541375 1.815947 -1.564501 0.707240 0.919810 -3.412093 -7.106987 2.144802 -25.837467 3.899140 4.658098 26.025393 3.518053 1.825956 12.686443 0.000000 0.000000 0.000000 1.675484 5.932958 -22.452694 17.163694 -27.073047 4.161553 17.516718 11.865161 -24.683720 0.000000 0.000000 0.000000 -7.125000 0.000000 0.000000 -12.845198 55.249114 3.271710 0.000000 0.000000 0.000000 0.709824 3.499504 16.944987 -15.144222 -24.346652 -3.285183 -14.335715 6.498434 -8.153976 0.000000 0.000000 0.000000 7.125000 0.000000 0.000000 9.059143 21.606715 5.150041
-14.448212 17.748224 14.530782 10.283642 -86.541471 -7.731991 0.000000 0.000000 0.000000 -24.140625 -5.359038 -3.646705 1.494816 7.723222 21.876576 0.420450 -9.762266 -12.534114 0.190493 2.810038 7.750261 0.000000 0.000000 0.000000 23.308654 5.307024 -6.806477 -2.745995 -10.271959 29.862049 -1.164152 5.482804 -19.312561 -0.360657 -3.857939 10.677261 -0.548369 1.433118 2.756023 0.373352 1.896369 -1.832088 0.582554 0.959932 -3.459171 -7.369683 1.731698 -26.600107 4.093704 4.194492 25.975435 3.578061 1.627939 12.837251 0.000000 0.000000 0.000000 1.444339 6.143991 -22.507978 16.777732 -26.563802 3.987438 17.727065 12.230858 -24.588244 0.000000 0.000000 0.000000 -7.125000 0.000000 0.000000 -12.584149 55.195656 3.187163 0.000000 0.000000 0.000000 0.545832 3.292285 17.177297 -15.363524 -24.650029 -3.376074 -14.654958 6.104590 -8.158857 0.000000 0.000000 0.000000 7.125000 0.000000 0.000000 8.828566 21.588137 5.019589
-14.488117 17.761300 14.525730 9.465537 -86.044179 -6.929994 0.000000 0.000000 0.000000 -23.933662 -4.659190 -3.942335 1.513916 7.770168 22.018169 0.381209 -10.763216 -12.453251 0.086238 1.892892 5.209789 0.000000 0.000000 0.000000 23.485030 5.499594 -6.364793 -2.710038 -10.210128 29.659958 -1.166509 4.823697 -19.384702 -0.446288 -4.285388 11.880975 -0.788828 1.379912 2.790989 0.339315 1.811774 -2.105390 0.681967 0.924041 -3.766908 -7.701281 1.378615 -26.903312 4.528356 3.725231 26.042676 3.732713 1.450449 12.939217 0.000000 0.000000 0.000000 1.130109 6.321768 -22.410937 16.299630 -25.925179 3.775983 19.466568 14.024654 -24.999482 0.000000 0.000000 0.000000 -7.125000 0.000000 0.000000 -10.982426 55.957771 2.976047 0.000000 0.000000 0.000000 0.242942 3.144576 17.491753 -15.517663 -24.862260 -3.440629 -14.703265 5.802093 -7.761932 0.000000 0.000000 0.000000 7.125000 0.000000 0.000000 8.808292 21.990938 4.926110
-14.502790 17.774102 14.515737 12.459227 -85.271018 -10.156778 0.000000 0.000000 0.000000 -24.108191 -3.621159 -4.093617 1.500991 7.738504 21.922634 0.176541 -12.345594 -10.870786 0.039273 1.279206 3.517436 0.000000 0.000000 0.000000 23.168544 4.530958 -6.605622 -2.761419 -10.298428 29.948646 -1.130121 4.349154 -19.118700 -0.348192 -3.790961 10.489351 -1.220393 1.235415 2.965506 0.110926 1.590501 -2.051286 0.698799 0.822353 -3.810998 -7.542543 1.261628 -26.674781 4.527740 3.464445 26.169724 3.659675 1.345455 12.969717 0.000000 0.000000 0.000000 1.009847 6.116340 -21.954930 15.890495 -25.371914 3.598913 19.164596 14.990525 -25.395749 0.000000 0.000000 0.000000 -7.125000 0.000000 0.000000 -11.488835 56.293448 3.211590 0.000000 0.000000 0.000000 0.664230 2.516386 16.533290 -15.206379 -24.432873 -3.310886 -14.583171 7.188050 -7.521209 0.000000 0.000000 0.000000 7.125000 0.000000 0.000000 8.904866 22.241229 4.930025
-14.446499 17.818679 14.455542 12.688288 -84.991009 -9.948104 0.000000 0.000000 0.000000 -23.873370 -2.378217 -5.397233 1.493755 7.720666 21.868825 0.146848 -12.526942 -10.624637 0.113663 -2.173023 -5.983990 0.000000 0.000000 0.000000 23.333132 5.285876 -7.381372 -2.832755 -10.419236 30.345170 -1.077516 3.690807 -18.735178 -0.274444 -3.369258 9.308676 -1.844247 1.311430 3.192446 -0.014261 1.652712 -2.109068 0.908778 0.869463 -4.015901 -7.708006 1.072498 -26.392216 4.991422 3.068531 26.968641 3.824934 1.186980 13.257691 0.000000 0.000000 0.000000 1.190317 5.956269 -22.652580 16.025010 -25.554511 3.656758 17.631399 13.247822 -24.838642 0.000000 0.000000 0.000000 -7.125000 0.000000 0.000000 -12.803181 55.425730 3.316131 0.000000 0.000000 0.000000 0.788601 2.459183 17.717926 -15.357207 -24.641306 -3.373490 -14.653915 6.208664 -7.900825 0.000000 0.000000 0.000000 7.125000 0.000000 0.000000 8.838821 21.851266 4.972056
-14.328274 17.873257 14.376666 11.183461 -83.760525 -8.747756 0.000000 0.000000 0.000000 -23.513271 -2.393727 -5.837549 1.519340 7.783522 22.058445 -0.133798 -14.051085 -8.186913 0.011515 -0.682069 -1.874424 0.000000 0.000000 0.000000 23.441588 3.918476 -8.258558 -2.895064 -10.523274 30.688352 -0.974556 3.472667 -17.815320 -0.255101 -3.249644 8.974621 -2.122136 1.370846 4.450893 -0.335907 1.681470 -1.718745 0.705650 0.886781 -4.323220 -8.375535 0.452303 -25.668496 6.041273 1.961336 28.823238 4.223476 0.698239 13.958425 0.000000 0.000000 0.000000 1.992302 5.304991 -24.180147 16.730967 -26.501705 3.966570 17.710730 12.472699 -24.796482 0.000000 0.000000 0.000000 -7.125000 0.000000 0.000000 -12.701323 55.399581 3.281128 0.000000 0.000000 0.000000 1.397202 2.342723 18.081531 -15.578718 -24.946139 -3.466331 -14.431473 6.231380 -8.274009 0.000000 0.000000 0.000000 7.125000 0.000000 0.000000 8.985617 21.480507 5.133352
-14.188529 17.914303 14.268494 11.714203 -82.924547 -9.465966 0.000000 0.000000 0.000000 -23.372225 -2.731058 -6.160927 1.520399 7.786167 22.066463 -0.253852 -14.423374 -6.862779 0.023750 -0.947341 -2.604269 0.000000 0.000000 0.000000 23.543611 4.187623 -8.718587 -2.956907 -10.624950 31.025195 -0.876617 2.409697 -17.043238 -0.387755 -3.997426 11.069537 -2.614022 1.464544 5.450073 -0.656249 1.737450 -1.195188 0.628314 0.918288 -4.352062 -8.950969 -0.352550 -24.367408 6.500992 0.554803 31.395283 4.340687 -0.046693 14.954467 0.000000 0.000000 0.000000 2.827514 4.716906 -24.686026 17.893271 -28.020186 4.499061 19.887930 13.075447 -25.049275 0.000000 0.000000 0.000000 -7.125000 0.000000 0.000000 -10.567817 56.094091 2.898847 0.000000 0.000000 0.000000 1.640719 2.319716 20.281940 -16.122930 -25.687008 -3.699082 -13.270973 7.351059 -7.135551 0.000000 0.000000 0.000000 7.125000 0.000000 0.000000 9.876173 22.680115 5.382425
-14.010380 17.898660 14.134247 10.431782 -81.897886 -8.426928 0.000000 0.000000 0.000000 -22.972000 -4.091562 -6.682887 1.635117 8.060683 22.898466 -0.304114 -14.375858 -6.058895 0.000718 -0.129592 -0.356121 0.000000 0.000000 0.000000 24.084576 4.508542 -9.020408 -2.959171 -10.628674 31.037479 -0.848174 0.862270 -17.134686 -0.286423 -3.438285 9.501865 -2.688536 1.539106 6.698035 -0.862092 1.786603 -0.516649 0.431029 0.933476 -4.348525 -9.862468 -1.460707 -23.130158 6.548133 -1.053974 33.340236 4.276762 -0.956344 15.780649 0.000000 0.000000 0.000000 3.528220 4.519489 -24.836789 19.670384 -30.242954 5.364445 19.541891 11.617803 -25.054382 0.000000 0.000000 0.000000 -7.125000 0.000000 0.000000 -10.931099 56.028108 2.982328 0.000000 0.000000 0.000000 1.928419 2.009015 21.979318 -16.304600 -25.931787 -3.778294 -13.637969 5.726093 -9.236051 0.000000 0.000000 0.000000 7.125000 0.000000 0.000000 9.519708 20.540468 5.654539
